<?xml version="1.0" encoding="UTF-8" standalone="no"?>
<!DOCTYPE svg PUBLIC "-//W3C//DTD SVG 1.1//EN" "http://www.w3.org/Graphics/SVG/1.1/DTD/svg11.dtd">
<svg width="100%" height="100%" viewBox="0 0 1533 2053" version="1.1" xmlns="http://www.w3.org/2000/svg" xmlns:xlink="http://www.w3.org/1999/xlink" xml:space="preserve" xmlns:serif="http://www.serif.com/" style="fill-rule:evenodd;clip-rule:evenodd;stroke-linejoin:round;stroke-miterlimit:2;">
    <g transform="matrix(4.16667,0,0,4.16667,-1901.76,-423.336)">
        <g transform="matrix(1.34632,0,0,1.34632,102.631,-326.433)">
            <g transform="matrix(1,0,0,1,268.056,621.838)">
                <g transform="matrix(64,0,0,64,0,0)">
                    <path d="M0.332,-0.519L0.336,-0.519L0.407,-0.296L0.261,-0.296L0.332,-0.519ZM0.013,-0.042L0.183,-0.042L0.225,-0.175L0.445,-0.175L0.49,-0.042L0.682,-0.042L0.449,-0.714L0.248,-0.714L0.013,-0.042Z" style="fill:rgb(74,85,104);fill-rule:nonzero;"/>
                </g>
                <g transform="matrix(64,0,0,64,44.48,0)">
                    <path d="M0.064,-0.042L0.224,-0.042L0.224,-0.461L0.228,-0.461L0.468,-0.042L0.647,-0.042L0.647,-0.714L0.487,-0.714L0.487,-0.338L0.484,-0.338L0.267,-0.714L0.064,-0.714L0.064,-0.042Z" style="fill:rgb(74,85,104);fill-rule:nonzero;"/>
                </g>
                <g transform="matrix(64,0,0,64,89.92,0)">
                    <path d="M0.252,-0.175L0.252,-0.581L0.314,-0.581C0.406,-0.581 0.459,-0.54 0.459,-0.397L0.459,-0.363C0.459,-0.222 0.413,-0.175 0.319,-0.175L0.252,-0.175ZM0.064,-0.042L0.323,-0.042C0.532,-0.042 0.657,-0.144 0.657,-0.371L0.657,-0.394C0.657,-0.625 0.532,-0.714 0.322,-0.714L0.064,-0.714L0.064,-0.042Z" style="fill:rgb(74,85,104);fill-rule:nonzero;"/>
                </g>
                <g transform="matrix(64,0,0,64,134.336,0)">
                    <path d="M0.228,-0.042L0.416,-0.042L0.416,-0.305L0.627,-0.714L0.455,-0.714L0.337,-0.469L0.334,-0.469L0.214,-0.714L0.015,-0.714L0.228,-0.305L0.228,-0.042Z" style="fill:rgb(74,85,104);fill-rule:nonzero;"/>
                </g>
            </g>
            <g>
                <g transform="matrix(1,0,0,1,268.056,685.838)">
                    <g transform="matrix(64,0,0,64,0,0)">
                        <path d="M0.064,-0.042L0.252,-0.042L0.252,-0.351L0.457,-0.042L0.667,-0.042L0.433,-0.397L0.653,-0.714L0.463,-0.714L0.252,-0.405L0.252,-0.714L0.064,-0.714L0.064,-0.042Z" style="fill:rgb(74,85,104);fill-rule:nonzero;"/>
                    </g>
                </g>
                <g transform="matrix(1,0,0,1,310.552,685.838)">
                    <g transform="matrix(64,0,0,64,0,0)">
                        <path d="M0.351,-0.031C0.542,-0.031 0.63,-0.116 0.63,-0.283L0.63,-0.713L0.462,-0.713L0.462,-0.29C0.462,-0.203 0.431,-0.168 0.357,-0.168C0.283,-0.168 0.248,-0.203 0.248,-0.289L0.248,-0.713L0.059,-0.713L0.059,-0.282C0.059,-0.115 0.157,-0.031 0.351,-0.031Z" style="fill:rgb(74,85,104);fill-rule:nonzero;"/>
                    </g>
                    <g transform="matrix(64,0,0,64,44.096,0)">
                        <path d="M0.064,-0.042L0.219,-0.042L0.219,-0.496L0.224,-0.496L0.358,-0.042L0.489,-0.042L0.624,-0.495L0.628,-0.495L0.628,-0.042L0.813,-0.042L0.813,-0.714L0.564,-0.714L0.442,-0.309L0.438,-0.309L0.316,-0.714L0.064,-0.714L0.064,-0.042Z" style="fill:rgb(74,85,104);fill-rule:nonzero;"/>
                    </g>
                    <g transform="matrix(64,0,0,64,100.16,0)">
                        <path d="M0.064,-0.042L0.537,-0.042L0.537,-0.177L0.25,-0.177L0.25,-0.319L0.467,-0.319L0.467,-0.451L0.25,-0.451L0.25,-0.579L0.528,-0.579L0.528,-0.714L0.064,-0.714L0.064,-0.042Z" style="fill:rgb(74,85,104);fill-rule:nonzero;"/>
                    </g>
                    <g transform="matrix(64,0,0,64,137.344,0)">
                        <path d="M0.252,-0.175L0.252,-0.581L0.314,-0.581C0.406,-0.581 0.459,-0.54 0.459,-0.397L0.459,-0.363C0.459,-0.222 0.413,-0.175 0.319,-0.175L0.252,-0.175ZM0.064,-0.042L0.323,-0.042C0.532,-0.042 0.657,-0.144 0.657,-0.371L0.657,-0.394C0.657,-0.625 0.532,-0.714 0.322,-0.714L0.064,-0.714L0.064,-0.042Z" style="fill:rgb(74,85,104);fill-rule:nonzero;"/>
                    </g>
                    <g transform="matrix(64,0,0,64,181.76,0)">
                        <path d="M0.332,-0.519L0.336,-0.519L0.407,-0.296L0.261,-0.296L0.332,-0.519ZM0.013,-0.042L0.183,-0.042L0.225,-0.175L0.445,-0.175L0.49,-0.042L0.682,-0.042L0.449,-0.714L0.248,-0.714L0.013,-0.042Z" style="fill:rgb(74,85,104);fill-rule:nonzero;"/>
                    </g>
                </g>
            </g>
        </g>
        <g transform="matrix(0.782803,0,0,0.782803,0,156.382)">
            <g transform="matrix(1,0,0,1,191.903,-221.14)">
                <path d="M599.999,151.159C715.339,151.159 808.84,244.661 808.84,360C808.84,475.34 715.339,568.842 599.999,568.842C484.66,568.842 391.158,475.34 391.158,360C391.158,244.661 484.66,151.159 599.999,151.159Z" style="fill:rgb(74,85,104);"/>
            </g>
            <g transform="matrix(1,0,0,1,191.903,-221.14)">
                <path d="M765.744,267.333C761.755,260.214 757.321,253.378 752.479,246.863C712.065,277.976 671.652,309.089 631.238,340.203L631.238,172.701C623.29,171.385 615.175,170.563 606.925,170.267L606.925,549.734C615.175,549.438 623.29,548.616 631.238,547.3L631.238,401.537C668.12,429.743 705.002,457.95 741.883,486.156C747.275,480.098 752.279,473.695 756.856,466.999C714.983,434.975 673.111,402.952 631.238,370.929C676.048,336.363 720.902,301.856 765.744,267.333ZM593.073,170.267C584.773,170.565 576.61,171.396 568.614,172.726C482.168,187.106 415.471,259.892 410.447,349.161C410.025,356.651 410.041,364.172 410.495,371.661C412.795,409.625 426.252,444.579 447.629,473.285C458.249,487.546 470.849,500.289 484.989,511.07L484.989,476.69C476.025,467.853 468.084,457.999 461.363,447.355C447.347,425.157 438.515,399.359 436.567,371.661L568.614,371.661L568.614,547.275C576.61,548.605 584.773,549.436 593.073,549.734L593.073,170.267ZM436.511,349.161C441.402,274.287 496.588,213.135 568.614,199.162L568.614,349.161L436.511,349.161Z" style="fill:white;"/>
            </g>
        </g>
    </g>
</svg>
