<?xml version="1.0" encoding="UTF-8" standalone="no"?>
<!DOCTYPE svg PUBLIC "-//W3C//DTD SVG 1.1//EN" "http://www.w3.org/Graphics/SVG/1.1/DTD/svg11.dtd">
<svg width="100%" height="100%" viewBox="0 0 1200 720" version="1.1" xmlns="http://www.w3.org/2000/svg" xmlns:xlink="http://www.w3.org/1999/xlink" xml:space="preserve" xmlns:serif="http://www.serif.com/" style="fill-rule:evenodd;clip-rule:evenodd;stroke-linejoin:round;stroke-miterlimit:2;">
    <g transform="matrix(1.34632,0,0,1.34632,102.631,-326.433)">
        <text x="268.056px" y="621.838px" style="font-family:'AppleSDGothicNeo-Heavy', 'Apple SD Gothic Neo';font-weight:900;font-size:64px;">ANDY</text>
        <text x="268.056px" y="685.838px" style="font-family:'AppleSDGothicNeo-Heavy', 'Apple SD Gothic Neo';font-weight:900;font-size:64px;">K<tspan x="310.552px " y="685.838px ">U</tspan>MEDA</text>
    </g>
    <g transform="matrix(0.782803,0,0,0.782803,0,156.382)">
        <g transform="matrix(1,0,0,1,191.903,-221.14)">
            <path d="M599.999,151.159C715.339,151.159 808.84,244.661 808.84,360C808.84,475.34 715.339,568.842 599.999,568.842C484.66,568.842 391.158,475.34 391.158,360C391.158,244.661 484.66,151.159 599.999,151.159Z" style="fill:rgb(26,26,26);"/>
        </g>
        <g transform="matrix(1,0,0,1,191.903,-221.14)">
            <path d="M765.744,267.333C761.755,260.214 757.321,253.378 752.479,246.863C712.065,277.976 671.652,309.089 631.238,340.203L631.238,172.701C623.29,171.385 615.175,170.563 606.925,170.267L606.925,549.734C615.175,549.438 623.29,548.616 631.238,547.3L631.238,401.537C668.12,429.743 705.002,457.95 741.883,486.156C747.275,480.098 752.279,473.695 756.856,466.999C714.983,434.975 673.111,402.952 631.238,370.929C676.048,336.363 720.902,301.856 765.744,267.333ZM593.073,170.267C584.773,170.565 576.61,171.396 568.614,172.726C482.168,187.106 415.471,259.892 410.447,349.161C410.025,356.651 410.041,364.172 410.495,371.661C412.795,409.625 426.252,444.579 447.629,473.285C458.249,487.546 470.849,500.289 484.989,511.07L484.989,476.69C476.025,467.853 468.084,457.999 461.363,447.355C447.347,425.157 438.515,399.359 436.567,371.661L568.614,371.661L568.614,547.275C576.61,548.605 584.773,549.436 593.073,549.734L593.073,170.267ZM436.511,349.161C441.402,274.287 496.588,213.135 568.614,199.162L568.614,349.161L436.511,349.161Z" style="fill:white;"/>
        </g>
    </g>
</svg>
